# xmcd
#
# Track frame offsets:
#	150
#	12672
#	28015
#	46019
#	59446
#	77236
#	89166
#	102716
#	115522
#	126704
#	139226
#
# Disc length: 2147 seconds
#
# Revision: 1
# Processed by: cddbd v1.5.2PL0 Copyright (c) Steve Scherf et al.
# Submitted via: audiograbber 1.83.01
#
DISCID=a108610b
DTITLE=Willie Nelson - My Way
DYEAR=2018
DGENRE=Country
TTITLE0=Fly Me to the Moon
TTITLE1=Summer Wind
TTITLE2=One for My Baby (And One More for the Road)
TTITLE3=A Foggy Day
TTITLE4=It Was a Very Good Year
TTITLE5=Blue Moon
TTITLE6=I'll Be Around
TTITLE7=Night and Day
TTITLE8=What Is This Thing Called Love
TTITLE9=Young at Heart
TTITLE10=My Way
EXTD=
EXTT0=
EXTT1=
EXTT2=
EXTT3=
EXTT4=
EXTT5=
EXTT6=
EXTT7=
EXTT8=
EXTT9=
EXTT10=
PLAYORDER=
